<svg xmlns="http://www.w3.org/2000/svg" xmlns:xlink="http://www.w3.org/1999/xlink" viewBox="0,0,256,256" width="50px" height="50px"><g fill="#ffffff" fill-rule="nonzero" stroke="none" stroke-width="1" stroke-linecap="butt" stroke-linejoin="miter" stroke-miterlimit="10" stroke-dasharray="" stroke-dashoffset="0" font-family="none" font-weight="none" font-size="none" text-anchor="none" style="mix-blend-mode: normal"><g transform="scale(5.12,5.12)"><path d="M4.781,6.375c-0.266,-0.331 -0.714,-0.459 -1.112,-0.318c-0.401,0.14 -0.669,0.518 -0.669,0.943v18c0,0.232 0.081,0.457 0.228,0.636l14,17c0.19,0.23 0.473,0.364 0.772,0.364h14c0.384,0 0.735,-0.221 0.901,-0.566c0.167,-0.347 0.12,-0.758 -0.121,-1.059zM46.336,7.059c-0.396,-0.146 -0.842,-0.02 -1.11,0.309l-18,22c-0.245,0.299 -0.295,0.712 -0.13,1.062c0.166,0.347 0.518,0.57 0.904,0.57h14c0.304,0 0.591,-0.138 0.781,-0.375l4,-5c0.142,-0.178 0.219,-0.397 0.219,-0.625v-17c0,-0.423 -0.266,-0.8 -0.664,-0.941z"></path></g></g></svg>